<svg height="65" viewBox="0 0 162 65" width="162" xmlns="http://www.w3.org/2000/svg"><g fill="none" fill-rule="evenodd" transform="translate(1 -14)"><g stroke="#4d4d4d" stroke-linecap="round" stroke-linejoin="round" stroke-width="1.5" transform="translate(0 21)"><path d="m0 19.1479797c0 1.2974212 1.04369577 2.3498358 2.3326416 2.3498358s2.3326416-1.0524146 2.3326416-2.3498358-1.04369577-2.3479797-2.3326416-2.3479797-2.3326416 1.0505585-2.3326416 2.3479797z"/><path d="m31.1597938 47.9479797c0 1.2974212 1.0436958 2.3498358 2.3326416 2.3498358s2.3326416-1.0524146 2.3326416-2.3498358-1.0436958-2.3479797-2.3326416-2.3479797-2.3326416 1.0505585-2.3326416 2.3479797z"/><g transform="translate(21 22)"><path d="m2.13543721.19087982v3.56373199"/><path d="m.36539557 1.97274581h3.54045207"/></g><g transform="translate(7 38)"><path d="m2.55296298.19087982v3.56373199"/><path d="m.78292134 1.97274581h3.54045208"/></g><path d="m33.2687898 0 .8980209 1.83198098 2.0099442.29512156-1.4530606 1.42734891.3429813 2.0138798-1.7978858-.95218465-1.7978858.95218465.3429813-2.0138798-1.4530606-1.42734891 2.0099442-.29512156z"/></g><g stroke="#4d4d4d" stroke-linecap="round" stroke-linejoin="round" stroke-width="1.5" transform="matrix(-1 0 0 -1 160 72)"><path d="m0 19.1479797c0 1.2974212 1.04369577 2.3498358 2.3326416 2.3498358s2.3326416-1.0524146 2.3326416-2.3498358-1.04369577-2.3479797-2.3326416-2.3479797-2.3326416 1.0505585-2.3326416 2.3479797z"/><path d="m31.1597938 47.9479797c0 1.2974212 1.0436958 2.3498358 2.3326416 2.3498358s2.3326416-1.0524146 2.3326416-2.3498358-1.0436958-2.3479797-2.3326416-2.3479797-2.3326416 1.0505585-2.3326416 2.3479797z"/><g transform="translate(21 22)"><path d="m2.13543721.19087982v3.56373199"/><path d="m.36539557 1.97274581h3.54045207"/></g><g transform="translate(7 38)"><path d="m2.55296298.19087982v3.56373199"/><path d="m.78292134 1.97274581h3.54045208"/></g><path d="m33.2687898 0 .8980209 1.83198098 2.0099442.29512156-1.4530606 1.42734891.3429813 2.0138798-1.7978858-.95218465-1.7978858.95218465.3429813-2.0138798-1.4530606-1.42734891 2.0099442-.29512156z"/></g><g transform="translate(34.5)"><path d="m71.0670103 46.4c0 14.3595833-11.6254161 26-25.9664948 26-14.3410788 0-25.9664949-11.6404167-25.9664949-26 0-14.3585 11.6254161-26 25.9664949-26 14.3410787 0 25.9664948 11.6415 25.9664948 26" fill="#e9eae6"/><path d="m38.3787539 48.4v-15.1469897c0-3.1939269 2.7912506-5.7936604 5.9227925-5.7936604s5.9227925 2.5997335 5.9227925 5.7936604v15.1469897h6.4612281v-14.8120008c0-6.8315768-5.6869576-12.3879992-12.3840206-12.3879992s-12.3840206 5.5564224-12.3840206 12.3879992v14.8120008z" fill="#fffffe"/><path d="m38.3787539 48.4v-15.1469897c0-3.1939269 2.7912506-5.7936604 5.9227925-5.7936604s5.9227925 2.5997335 5.9227925 5.7936604v15.1469897h6.4612281v-14.8120008c0-6.8315768-5.6869576-12.3879992-12.3840206-12.3879992s-12.3840206 5.5564224-12.3840206 12.3879992v14.8120008z" stroke="#4d4d4d" stroke-linecap="round" stroke-linejoin="round" stroke-width="1.5"/><path d="m27.1237113 44.1818182v19.6363636c0 1.2054546.9918815 2.1818182 2.2164949 2.1818182h29.9226804c1.2235052 0 2.2164948-.9763636 2.2164948-2.1818182v-19.6363636c0-1.2043637-.9929896-2.1818182-2.2164948-2.1818182h-29.9226804c-1.2246134 0-2.2164949.9774545-2.2164949 2.1818182" fill="#fff"/><g stroke="#4d4d4d" stroke-linecap="round" stroke-linejoin="round" stroke-width="1.5"><path d="m27.1237113 44.1818182v19.6363636c0 1.2054546.9918815 2.1818182 2.2164949 2.1818182h29.9226804c1.2235052 0 2.2164948-.9763636 2.2164948-2.1818182v-19.6363636c0-1.2043637-.9929896-2.1818182-2.2164948-2.1818182h-29.9226804c-1.2246134 0-2.2164949.9774545-2.2164949 2.1818182z"/><path d="m31.556701 60.5454545v2.1818182z"/><path d="m31.556701 45.2727273v13.0909091z"/><g transform="matrix(.76604444 .64278761 -.64278761 .76604444 41.172759 .595981)"><path d="m31.4125488 30.8713117c17.6364824.7153638 31.3543503 15.6171437 30.6391081 33.2823837-.0304358.7502065-.0956555 1.4917024-.1760931 2.2266652" transform="matrix(0 1 -1 0 95.371312 1.88036)"/><path d="m49.2997466-12.4924622c-10.8275501 4.76582566-18.5843414 15.38957735-19.0952287 28.0244051-.2358777 5.8274387 1.1065602 11.348915 3.6349089 16.1648271" transform="matrix(0 1 -1 0 49.340984 -30.136676)"/><path d="m-15.0175823 37.2693239c4.957781 3.6573928 11.02212216 5.9221672 17.63756941 6.1911091 11.81780189.4790869 22.38882139-5.5388977 28.29772239-14.8734701" transform="matrix(0 1 -1 0 43.987091 28.086963)"/></g></g><path d="m46.4987366 59.8284974v-4.9455973c1.3083967-.7524256 2.1971397-2.1367586 2.1971397-3.7404133 0-2.7382648-2.564062-4.8837094-5.4489063-4.2214011-1.5566735.3572122-2.824423 1.5971402-3.2045282 3.1323926-.5075392 2.0498984.464695 3.9108762 2.0620156 4.8294218v4.9455973c0 1.1997552.98322 2.1715026 2.1971396 2.1715026 1.2128211 0 2.1971396-.9717474 2.1971396-2.1715026" fill="#ffa400"/><path d="m46.4987366 59.8284974v-4.9455973c1.3083967-.7524256 2.1971397-2.1367586 2.1971397-3.7404133 0-2.7382648-2.564062-4.8837094-5.4489063-4.2214011-1.5566735.3572122-2.824423 1.5971402-3.2045282 3.1323926-.5075392 2.0498984.464695 3.9108762 2.0620156 4.8294218v4.9455973c0 1.1997552.98322 2.1715026 2.1971396 2.1715026 1.2128211 0 2.1971396-.9717474 2.1971396-2.1715026z" stroke="#4d4d4d" stroke-linecap="round" stroke-linejoin="round" stroke-width="1.5"/></g></g></svg>